<svg id="_4" fill='white' data-name="4" xmlns="http://www.w3.org/2000/svg" viewBox="0 0 266.95 209.41"><defs><style>.cls-1{fill:white;}</style></defs><title>turistapp logo</title><path class="cls-1" d="M1613.36,1466.26c0,2.32-.09,4.64-.26,7-.08,1.15-.2,2.29-.32,3.43-.28,2.64.67-3.53-.11.75a104.76,104.76,0,0,1-3.15,13.06,74.47,74.47,0,0,1-10.71,21.08c-.23.32-2.81,3.78-.76,1.15-.53.68-1.09,1.36-1.64,2-1.39,1.67-2.83,3.29-4.34,4.85s-3,3.08-4.66,4.54c-.64.58-1.29,1.15-2,1.72-.36.3-3.84,3.08-2.54,2.09,1.74-1.31-1.72,1.2-1.63,1.14q-1.07.75-2.16,1.47c-1.82,1.2-3.69,2.33-5.59,3.4s-3.85,2.07-5.83,3c-.8.37-1.6.74-2.4,1.09,3-1.3-1.35.46-2,.68a91,91,0,0,1-12.22,3.47c-1.1.24-2.21.45-3.32.64-.76.13-3.76.49-.74.15-2.51.29-5,.5-7.56.59a105.59,105.59,0,0,1-13.19-.44c-4.37-.38,1.85.35-.76-.08-1.11-.19-2.23-.37-3.34-.59q-3.63-.7-7.19-1.71-2.89-.81-5.72-1.8c-1.25-.44-2.49-.92-3.72-1.4.56.22,2.54,1.19-.06,0a104.53,104.53,0,0,1-12.07-6.6c-1.65-1.06-3.24-2.19-4.83-3.34,2.46,1.79-2.3-1.92-3-2.57a91.93,91.93,0,0,1-10-10.25c-.55-.66-1.11-1.34-1.64-2,1.93,2.48-.37-.6-.76-1.15-1.49-2.15-2.9-4.35-4.21-6.61-1.21-2.09-2.33-4.21-3.37-6.38-.47-1-.94-2-1.37-3,1.3,3-.35-1-.46-1.32a91.7,91.7,0,0,1-4-14.17c-.26-1.33-.48-2.67-.69-4,.41,2.71,0-.49-.11-1.45-.25-2.77-.35-5.55-.37-8.33-.06-7.84-6.86-15.36-15-15s-15.06,6.59-15,15a108.8,108.8,0,0,0,71.4,101.13c40.84,15,89.7,2,117.53-31.47a109.49,109.49,0,0,0,25.74-69.66c.06-7.85-6.94-15.36-15-15s-14.94,6.59-15,15Z" transform="translate(-1379.02 -1364.18)"/><path class="cls-1" d="M1458.69,1466.26v-87.07c0-7.85-6.9-15.36-15-15s-15,6.59-15,15v87.07c0,7.85,6.9,15.36,15,15s15-6.59,15-15Z" transform="translate(-1379.02 -1364.18)"/><path class="cls-1" d="M1394,1432.73h99.32c7.85,0,15.36-6.9,15-15s-6.59-15-15-15H1394c-7.85,0-15.36,6.89-15,15s6.59,15,15,15Z" transform="translate(-1379.02 -1364.18)"/><circle class="cls-1" cx="249.34" cy="53.55" r="17.61"/></svg>